HIERARCHY
ROOT Hips
{
	OFFSET 0.00000 0.00000 0.00000
	CHANNELS 6 Xposition Yposition Zposition Zrotation Yrotation Xrotation 
	JOINT LHipJoint
	{
		OFFSET 0 0 0
		CHANNELS 3 Zrotation Yrotation Xrotation
		JOINT LeftHip
		{
			OFFSET 1.09156 -1.61406 0.76500
			CHANNELS 3 Zrotation Yrotation Xrotation
			JOINT LeftKnee
			{
				OFFSET 2.33750 -6.42225 0.00000
				CHANNELS 3 Zrotation Yrotation Xrotation
				JOINT LeftAnkle
				{
					OFFSET 2.49247 -6.84800 0.00000
					CHANNELS 3 Zrotation Yrotation Xrotation
					JOINT LeftToe
					{
						OFFSET 0.15312 -0.42069 1.45461
						CHANNELS 3 Zrotation Yrotation Xrotation
						End Site
						{
							OFFSET 0.00000 -0.00000 0.77046
						}
					}
				}
			}
		}
	}
	JOINT RHipJoint
	{
		OFFSET 0 0 0
		CHANNELS 3 Zrotation Yrotation Xrotation
		JOINT RightHip
		{
			OFFSET -0.99883 -1.61406 0.76500
			CHANNELS 3 Zrotation Yrotation Xrotation
			JOINT RightKnee
			{
				OFFSET -2.36877 -6.50815 0.00000
				CHANNELS 3 Zrotation Yrotation Xrotation
				JOINT RightAnkle
				{
					OFFSET -2.53452 -6.96353 0.00000
					CHANNELS 3 Zrotation Yrotation Xrotation
					JOINT RightToe
					{
						OFFSET -0.13156 -0.36145 1.63237
						CHANNELS 3 Zrotation Yrotation Xrotation
						End Site
						{
							OFFSET -0.00000 -0.00000 0.84979
						}
					}
				}
			}
		}
	}
	JOINT lowerback
	{
		OFFSET 0 0 0
		CHANNELS 3 Zrotation Yrotation Xrotation
		JOINT Chest
		{
			OFFSET -0.02431 1.98242 -0.13616
			CHANNELS 3 Zrotation Yrotation Xrotation
			JOINT Chest2
			{
				OFFSET 0.03629 1.98974 -0.02954
				CHANNELS 3 Zrotation Yrotation Xrotation
				JOINT lowerneck
				{
					OFFSET 0 0 0
					CHANNELS 3 Zrotation Yrotation Xrotation
					JOINT Neck
					{
						OFFSET 0.09349 1.40783 0.22333
						CHANNELS 3 Zrotation Yrotation Xrotation
						JOINT Head
						{
							OFFSET -0.04273 1.44500 -0.06495
							CHANNELS 3 Zrotation Yrotation Xrotation
							End Site
							{
								OFFSET -0.02251 1.44600 -0.04544
							}
						}
					}
				}
				JOINT LeftCollar
				{
					OFFSET 0 0 0
					CHANNELS 3 Zrotation Yrotation Xrotation
					JOINT LeftShoulder
					{
						OFFSET 3.49137 0.85126 -0.29740
CHANNELS 3 Zrotation Xrotation Yrotation
						JOINT LeftElbow
						{
OFFSET 0 -5.060350 0.000000
CHANNELS 3 Zrotation Xrotation Yrotation
							JOINT LeftWrist
							{
OFFSET 0 -3.147800 0.000000
CHANNELS 3 Zrotation Xrotation Yrotation
								JOINT lhand
								{
									OFFSET 0 0 0
CHANNELS 3 Zrotation Xrotation Yrotation
									JOINT LFingers
									{
OFFSET 0 -0.606750 0.000000
CHANNELS 3 Zrotation Xrotation Yrotation
										End Site
										{
OFFSET 0 -0.489180 0.000000
										}
									}
								}
								JOINT LThumb
								{
OFFSET 0 0.000000 0.000000
CHANNELS 3 Zrotation Xrotation Yrotation
									End Site
									{
OFFSET 0 -0.496640 0.496640
									}
								}
							}
						}
					}
				}
				JOINT RightCollar
				{
					OFFSET 0 0 0
					CHANNELS 3 Zrotation Yrotation Xrotation
					JOINT RightShoulder
					{
						OFFSET -3.28101 0.69707 0.00747
CHANNELS 3 Zrotation Xrotation Yrotation
						JOINT RightElbow
						{
OFFSET 0 -5.122730 -0.000000
CHANNELS 3 Zrotation Xrotation Yrotation
							JOINT RightWrist
							{
OFFSET 0 -3.422000 0.000000
CHANNELS 3 Zrotation Xrotation Yrotation
								JOINT rhand
								{
									OFFSET 0 0 0
CHANNELS 3 Zrotation Xrotation Yrotation
									JOINT RFingers
									{
OFFSET 0 -0.704600 0.000000
CHANNELS 3 Zrotation Xrotation Yrotation
										End Site
										{
OFFSET 0 -0.568070 0.000000
										}
									}
								}
								JOINT RThumb
								{
OFFSET 0 0.000000 0.000000
CHANNELS 3 Zrotation Xrotation Yrotation
									End Site
									{
OFFSET 0 -0.576740 0.576740
									}
								}
							}
						}
					}
				}
			}
		}
	}
}
MOTION
Frames: 9
Frame Time: 0.008333333333333333
-33.643000 15.934000 -1.269400 153.485000 88.092700 160.536000 0.000000 0.000000 0.000000 -19.239000 -5.159000 -10.247100 2.064100 8.998400 25.790200 1.419200 6.424400 -25.640300 0.237600 3.137300 8.661200 0.000000 0.000000 0.000000 13.188200 6.155200 -7.459900 -1.348900 -7.352500 20.764100 0.159900 -14.340900 -18.479200 -0.764100 5.582100 -15.576500 -5.144400 -0.974200 -6.869300 0.550000 -0.907800 -2.879100 3.389500 -0.389700 0.962500 2.348900 1.111000 2.825000 1.947900 1.876700 -8.376600 0.154300 0.823800 -3.172800 -0.000000 0.000000 0.000000 -1.725500 -4.867700 -14.765700 6.008400 -10.276200 0.540800 16.716900 26.699300 -45.030600 0.000000 0.000000 0.000000 -7.125000 0.000000 0.000000 -37.582300 73.338400 26.170900 -0.000000 0.000000 0.000000 1.612700 0.557300 5.198800 -8.746500 -14.755500 -1.134700 -24.127500 4.067600 -32.262900 0.000000 0.000000 0.000000 7.125000 0.000000 -0.000000 4.341300 -4.602800 4.688700
-33.640126 15.929620 -1.263608 146.231279 88.059412 153.163446 0.000000 0.000000 0.000000 -19.485671 -4.904933 -10.114992 2.048317 8.966050 25.689299 1.439430 6.205524 -25.656875 0.252540 3.233474 8.929514 0.000000 0.000000 0.000000 12.913879 5.751598 -7.581121 -1.366499 -7.398464 20.901310 0.122201 -13.985173 -18.406870 -0.770476 5.604499 -15.641187 -5.476842 -1.161783 -6.810383 0.675970 -1.142398 -2.884016 3.689799 -0.504409 0.954722 1.115841 0.836925 2.383843 2.379161 1.435066 -7.770380 0.524291 0.633365 -2.896740 0.000000 0.000000 0.000000 -2.091304 -4.978780 -13.837737 6.020831 -10.296919 0.542997 16.547873 26.890408 -45.080384 0.000000 0.000000 0.000000 -7.125000 0.000000 0.000000 -37.885776 73.312404 26.378038 0.000000 0.000000 0.000000 1.221108 0.537726 5.724518 -8.716179 -14.707013 -1.127024 -23.502372 4.678043 -32.397448 0.000000 0.000000 0.000000 7.125000 0.000000 0.000000 4.713385 -4.597236 5.092688
-33.636949 15.933741 -1.262074 149.065230 88.040086 156.075289 0.000000 0.000000 0.000000 -19.400124 -5.084319 -10.138523 2.046055 8.961277 25.674360 1.433038 6.234111 -25.626845 0.288400 3.453501 9.543944 0.000000 0.000000 0.000000 13.022525 5.828333 -7.548477 -1.355829 -7.370721 20.818397 0.122531 -14.021714 -18.458729 -0.728461 5.453267 -15.206056 -5.224930 -1.070291 -6.954059 0.513612 -1.023814 -2.907074 3.387201 -0.446818 0.992155 1.152427 0.075229 2.642325 2.015390 0.401913 -8.152008 0.435893 0.125543 -3.065556 0.000000 0.000000 0.000000 -1.750766 -4.912904 -15.648366 6.200512 -10.596130 0.575581 16.427929 25.362847 -45.402550 0.000000 0.000000 0.000000 -7.125000 0.000000 0.000000 -38.813790 73.497109 27.217852 0.000000 0.000000 0.000000 1.436015 0.405503 5.616598 -8.659088 -14.615373 -1.112480 -24.234767 4.238054 -31.817373 0.000000 0.000000 0.000000 7.125000 0.000000 0.000000 4.207896 -4.169454 4.514712
-33.638483 15.939841 -1.256107 149.909277 87.951398 157.016651 0.000000 0.000000 0.000000 -19.385761 -5.212495 -10.168884 2.035401 8.939403 25.605907 1.419927 6.261519 -25.545898 0.277387 3.378498 9.335122 0.000000 0.000000 0.000000 13.016147 5.983956 -7.625429 -1.365693 -7.396433 20.895249 0.048264 -13.798186 -19.039415 -0.592179 4.923985 -13.692355 -5.264487 -1.110803 -7.070295 0.506704 -1.067138 -2.930808 3.397551 -0.468066 1.036808 1.194358 -0.601729 2.838504 1.497456 -0.537539 -8.454328 0.296170 -0.327958 -3.202023 0.000000 0.000000 0.000000 -1.810559 -5.180938 -15.324803 6.142490 -10.499634 0.564948 15.997266 25.392365 -45.219480 0.000000 0.000000 0.000000 -7.125000 0.000000 0.000000 -38.812016 73.210712 26.992234 0.000000 0.000000 0.000000 1.368478 0.400895 6.085939 -8.734402 -14.736193 -1.131575 -24.092634 3.635117 -31.807804 0.000000 0.000000 0.000000 7.125000 0.000000 0.000000 4.286394 -4.126926 4.596413
-33.653277 15.940582 -1.244813 153.686434 87.355110 160.926831 0.000000 0.000000 0.000000 -19.358882 -5.058215 -10.569738 2.037457 8.943582 25.619054 1.458792 5.541848 -25.410538 0.294517 3.472962 9.600039 0.000000 0.000000 0.000000 12.949069 5.541557 -7.840776 -1.363238 -7.390191 20.876507 0.088939 -14.036539 -18.896507 -0.628048 5.065232 -14.095941 -5.670395 -1.369572 -6.866861 0.659085 -1.400593 -3.075848 3.761700 -0.620771 0.817787 1.039448 -1.373858 2.316016 0.540796 -1.684310 -7.850638 0.047538 -0.858774 -2.902186 0.000000 0.000000 0.000000 -2.057129 -5.085833 -15.906792 6.212925 -10.616730 0.577862 16.818326 25.516344 -45.066849 0.000000 0.000000 0.000000 -7.125000 0.000000 0.000000 -37.565234 73.401188 26.206902 0.000000 0.000000 0.000000 1.036486 0.485731 6.745889 -8.724530 -14.720315 -1.129074 -24.084717 3.227381 -32.016009 0.000000 0.000000 0.000000 7.125000 0.000000 0.000000 4.324678 -4.339383 4.652390
-33.648521 15.936573 -1.248646 154.946462 87.583290 162.004855 0.000000 0.000000 0.000000 -19.294193 -5.512171 -10.159292 2.050153 8.969810 25.700868 1.420545 6.247972 -25.542940 0.364840 3.876372 10.729496 0.000000 0.000000 0.000000 13.090177 5.364318 -7.725310 -1.363042 -7.389567 20.874848 0.045001 -13.732943 -18.985094 -0.639429 5.115779 -14.239179 -5.284915 -1.314677 -6.849066 0.574242 -1.352105 -3.028012 3.459974 -0.602377 0.843414 0.610978 -2.038664 2.369407 0.340106 -2.615027 -7.841064 0.087638 -1.303022 -2.908129 0.000000 0.000000 0.000000 -1.912034 -4.971385 -16.945522 6.366556 -10.872161 0.606483 17.187962 24.679664 -45.824298 0.000000 0.000000 0.000000 -7.125000 0.000000 0.000000 -39.104282 74.072431 27.889269 0.000000 0.000000 0.000000 1.209764 0.395309 6.448634 -8.678449 -14.646424 -1.117424 -24.419305 3.795892 -31.779308 0.000000 0.000000 0.000000 7.125000 0.000000 0.000000 4.097735 -4.173015 4.396040
-33.630993 15.925572 -1.255851 148.613404 88.021927 155.327098 0.000000 0.000000 0.000000 -19.477402 -5.341799 -9.660815 2.059469 8.988832 25.760264 1.422357 6.630900 -25.793049 0.452695 4.316406 11.968556 0.000000 0.000000 0.000000 12.965696 5.030843 -7.606867 -1.373983 -7.418014 20.959741 0.007789 -13.240583 -18.728721 -0.782683 5.647586 -15.765519 -5.231232 -1.577480 -6.897581 0.874397 -1.709303 -2.927412 3.710215 -0.788744 1.016915 -1.144878 -2.233051 2.443913 0.786528 -2.940861 -7.600303 0.540605 -1.432270 -2.805659 0.000000 0.000000 0.000000 -2.484167 -4.802569 -15.450177 6.490056 -11.076996 0.629953 16.640773 24.356505 -45.519068 0.000000 0.000000 0.000000 -7.125000 0.000000 0.000000 -38.885364 73.656939 27.397182 0.000000 0.000000 0.000000 0.521245 0.265704 7.741248 -8.555707 -14.449572 -1.086627 -24.345748 3.513478 -31.956388 0.000000 0.000000 0.000000 7.125000 0.000000 0.000000 4.168278 -4.338280 4.483204
-33.644252 15.938780 -1.238642 146.686740 87.668394 153.639244 0.000000 0.000000 0.000000 -19.569408 -4.762107 -10.206760 2.035440 8.939490 25.606304 1.441953 5.780725 -25.421099 0.304764 3.548102 9.808827 0.000000 0.000000 0.000000 12.796008 5.370691 -7.671484 -1.394000 -7.469460 21.113980 -0.085044 -13.102382 -19.628987 -0.498424 4.516405 -12.535871 -5.712048 -1.700671 -6.909443 0.853780 -1.840052 -3.062028 3.950531 -0.842884 0.909724 -1.477776 -2.916241 2.345848 0.625299 -3.883938 -7.503880 0.571013 -1.886993 -2.741696 0.000000 0.000000 0.000000 -2.570212 -4.899191 -14.553204 6.407562 -10.940123 0.614234 16.892887 25.664240 -45.666876 0.000000 0.000000 0.000000 -7.125000 0.000000 0.000000 -39.001281 73.853275 27.639185 0.000000 0.000000 0.000000 0.582614 0.282375 7.371024 -8.572692 -14.476841 -1.090806 -23.820283 4.062049 -31.789519 0.000000 0.000000 0.000000 7.125000 0.000000 0.000000 4.436975 -4.045945 4.752863
-33.630765 15.925654 -1.241272 150.376766 88.235929 157.109993 0.000000 0.000000 0.000000 -19.239770 -5.305898 -9.646303 2.047811 8.964965 25.685932 1.396101 6.787320 -25.703622 0.354162 3.822854 10.578822 0.000000 0.000000 0.000000 13.178921 5.012930 -7.698650 -1.387735 -7.453550 21.066149 -0.116503 -12.641985 -19.384962 -0.605961 4.976969 -13.844040 -5.100067 -1.573328 -7.067148 0.864805 -1.701716 -2.925517 3.623590 -0.787616 1.108960 -1.913198 -3.347836 2.582309 0.653765 -4.484221 -7.929422 0.684277 -2.168115 -2.912239 0.000000 0.000000 0.000000 -2.485198 -4.970605 -14.136827 6.391497 -10.913520 0.611182 16.686316 25.822650 -45.708337 0.000000 0.000000 0.000000 -7.125000 0.000000 0.000000 -39.325356 73.805827 27.848383 0.000000 0.000000 0.000000 0.755210 -0.020828 6.931503 -8.403491 -14.204728 -1.048921 -23.497156 4.763550 -32.019178 0.000000 0.000000 0.000000 7.125000 0.000000 0.000000 4.655613 -4.208434 5.000717
